<svg width="185" height="69" viewBox="0 0 185 69" fill="none" xmlns="http://www.w3.org/2000/svg">
<g clip-path="url(#clip0_52_314)">
<path d="M13.4402 37.1624V16.3016H23.7113V37.839C23.7113 41.0464 25.8157 44.3416 29.9742 44.3416C34.0827 44.3416 36.187 41.0464 36.187 37.839V16.3016H46.4582V37.1123C46.4582 45.4316 41.2475 53.6005 29.9868 53.6005C18.701 53.6131 13.4402 45.4316 13.4402 37.1624Z" fill="white"/>
<path d="M56.5289 3.68484H51.4936L48.1367 4.59946V5.80225H37.1515V4.53681L33.7946 3.23379H31.064L30.5003 2.92057C30.5128 2.85792 30.5379 2.80781 30.5379 2.74516C30.5379 2.50711 30.3876 2.29411 30.1747 2.21894V0.214294H29.7488V2.21894C29.5358 2.30664 29.3855 2.50711 29.3855 2.74516C29.3855 2.80781 29.3981 2.87045 29.4231 2.92057L28.8469 3.23379H25.991L22.797 4.58693V5.80225H11.7367V4.61199L8.39229 3.68484H3.34439L0 4.61199V9.41061V39.1044C0 55.4674 13.3149 68.7857 29.6736 68.7857H30.2248C46.5834 68.7857 59.8984 55.4674 59.8984 39.1044V6.4287H59.8858V4.61199L56.5289 3.68484ZM55.6146 39.1044C55.6146 53.1119 44.2286 64.5008 30.2248 64.5008H29.6736C15.6698 64.5008 4.28382 53.1119 4.28382 39.1044V9.88671H55.6146V39.1044Z" fill="white"/>
<path d="M15.7449 50.8191L17.7115 52.7862L17.1979 53.2998L16.4839 52.5857L14.6176 54.4525L14.079 53.9138L15.9453 52.0469L15.2314 51.3328L15.7449 50.8191Z" fill="white"/>
<path d="M19.628 54.0766C20.4797 54.6279 20.7678 55.6052 20.1791 56.5072C19.628 57.3592 18.5883 57.5472 17.7366 56.9959C16.8723 56.4446 16.5967 55.4673 17.1854 54.5652C17.7115 53.7383 18.7261 53.4878 19.628 54.0766ZM18.1374 56.382C18.676 56.7328 19.2021 56.5323 19.5027 56.0562C19.8409 55.5425 19.7031 54.9662 19.2397 54.678C18.7762 54.3773 18.2126 54.4901 17.8744 55.0038C17.5612 55.4924 17.6865 56.0938 18.1374 56.382Z" fill="white"/>
<path d="M21.7949 55.4172L22.5214 55.6678L23.0475 57.3342L24.4253 56.3068L25.1143 56.5323L24.0496 59.7272L23.3231 59.4766L23.9995 57.4469L22.6968 58.3866L22.5966 58.349L22.1331 56.8205L21.4567 58.8377L20.7302 58.5871L21.7949 55.4172Z" fill="white"/>
<path d="M26.0035 57.5847C26.0661 57.071 26.5296 56.6701 27.206 56.7578C27.6319 56.8079 27.9575 56.9959 28.1454 57.2465L27.6694 57.7601C27.5442 57.6098 27.444 57.5096 27.1934 57.472C26.9805 57.4469 26.8427 57.5221 26.8302 57.6724C26.755 58.2237 28.1705 58.2613 28.0327 59.3513C27.9575 59.9277 27.4064 60.2659 26.7676 60.1908C26.3166 60.1407 25.8281 59.8775 25.7029 59.5017L26.2039 59.0381C26.3667 59.3012 26.6423 59.4516 26.8678 59.4766C27.0682 59.5017 27.1934 59.414 27.2185 59.2636C27.2561 58.775 25.8657 58.6622 26.0035 57.5847Z" fill="white"/>
<path d="M29.3479 57.021L30.112 57.0084L30.1496 58.4743L31.2142 56.9834L32.1286 56.9583L30.9011 58.537L32.304 60.3161L31.327 60.3412L30.1496 58.775L30.1871 60.3537L29.4231 60.3662L29.3479 57.021Z" fill="white"/>
<path d="M33.0931 58.3114L34.3457 58.111L34.4459 58.775L33.1933 58.9755L33.0931 58.3114Z" fill="white"/>
<path d="M35.6609 56.2567L36.162 56.1188L37.0763 59.3513L36.3874 59.5518L35.7486 57.2966L35.4856 57.6098L34.9595 57.1337L35.6609 56.2567Z" fill="white"/>
<path d="M38.2037 58.0609C38.0158 57.6474 38.116 57.2966 38.3164 57.0711V57.0585C38.0659 57.046 37.7653 56.8957 37.5899 56.5198C37.3645 56.0437 37.6651 55.5049 38.2413 55.2418C38.8174 54.9787 39.4187 55.0915 39.6441 55.5676C39.7819 55.8683 39.7569 56.2191 39.5439 56.4822V56.4947C39.8446 56.4446 40.2078 56.5824 40.3832 56.9708C40.6462 57.5472 40.3456 58.0859 39.7068 58.3741C39.0554 58.6873 38.4417 58.5871 38.2037 58.0609ZM38.8174 56.4321C39.0179 56.3319 39.0429 56.1439 38.9803 56.0061C38.9051 55.8307 38.7423 55.7931 38.5168 55.8933C38.2914 55.9936 38.2538 56.169 38.3164 56.3068C38.379 56.4446 38.5419 56.5448 38.7548 56.4446L38.8174 56.4321ZM39.068 57.1087C38.8675 57.1964 38.7298 57.3968 38.83 57.6098C38.9051 57.7727 39.093 57.8729 39.3811 57.7351C39.7068 57.5848 39.7193 57.3968 39.6316 57.2339C39.5314 57.0209 39.3185 56.9834 39.1181 57.0836L39.068 57.1087Z" fill="white"/>
<path d="M39.9197 54.4399L41.7109 53.162L41.999 53.5629L42.738 56.5574L42.0992 57.0084L41.4353 54.2395L40.333 55.0288L39.9197 54.4399Z" fill="white"/>
<path d="M44.0532 54.44C43.7276 54.1268 43.7025 53.7634 43.8027 53.4753L43.7902 53.4627C43.5522 53.5379 43.214 53.5003 42.9134 53.2121C42.5376 52.8488 42.6253 52.2349 43.0637 51.7838C43.5021 51.3328 44.1159 51.22 44.4917 51.5959C44.7296 51.8214 44.8298 52.1722 44.7171 52.498L44.7296 52.5105C44.9927 52.3602 45.381 52.3602 45.6816 52.6609C46.1325 53.0994 46.0323 53.7133 45.5438 54.2145C45.0678 54.7282 44.4541 54.8409 44.0532 54.44ZM44.0532 52.6985C44.2161 52.5356 44.166 52.3476 44.0532 52.2474C43.9155 52.1221 43.7526 52.1346 43.5773 52.2975C43.4019 52.4729 43.427 52.6483 43.5397 52.7611C43.6524 52.8613 43.8278 52.9114 44.0031 52.736L44.0532 52.6985ZM44.5167 53.2372C44.3664 53.3875 44.3038 53.6256 44.4791 53.7885C44.6169 53.9138 44.8173 53.9514 45.0428 53.7133C45.2933 53.4502 45.2432 53.2748 45.1054 53.1495C44.9301 52.9866 44.7296 53.0242 44.5668 53.1871L44.5167 53.2372Z" fill="white"/>
</g>
<g clip-path="url(#clip1_52_314)">
<path d="M80.0653 26.4145H87.9688V27.9842H84.8654V35.9774H83.1759V27.9914H80.0653V26.4145Z" fill="white"/>
<path d="M90.1658 29.6841C92.2032 29.6841 93.5229 31.0658 93.5229 32.9104C93.5229 34.755 92.2105 36.1366 90.1658 36.1366C88.1283 36.1366 86.8086 34.755 86.8086 32.9104C86.8086 31.0658 88.121 29.6841 90.1658 29.6841ZM90.1658 34.6682C91.1374 34.6682 91.848 33.9737 91.848 32.9031C91.848 31.8615 91.1229 31.1526 90.1658 31.1526C89.2376 31.1526 88.498 31.8326 88.498 32.9031C88.4908 33.9303 89.2086 34.6682 90.1658 34.6682Z" fill="white"/>
<path d="M94.8933 29.836H96.3145L98.41 32.404L100.397 29.836H101.782V35.9846H100.208V32.2304L98.3882 34.5234H98.3447L96.4668 32.2304V35.9846H94.8933V29.836Z" fill="white"/>
<path d="M108.946 35.066C108.423 35.7604 107.495 36.1293 106.495 36.1293C104.494 36.1293 103.152 34.8417 103.152 32.9031C103.152 31.1164 104.465 29.6769 106.342 29.6769C107.358 29.6769 108.249 29.9373 108.822 30.5088L108.083 31.7529C107.619 31.3045 107.111 31.1526 106.546 31.1526C105.668 31.1526 104.834 31.8253 104.834 32.9031C104.834 33.9954 105.683 34.6681 106.618 34.6681C107.292 34.6681 107.807 34.3571 108.206 33.9158L108.946 35.066Z" fill="white"/>
<path d="M110.207 29.836H111.781V35.9846H110.207V29.836ZM113.673 32.7584L116.327 35.9846H114.275L111.839 32.8814L114.057 29.836H116.044L113.673 32.7584Z" fill="white"/>
<path d="M117.262 35.9846V29.836H118.836V33.7277L121.714 29.836H123.288V35.9846H121.714V32.0929L118.836 35.9846H117.262Z" fill="white"/>
<path d="M125.042 35.9847V29.836H126.616V33.7278L129.495 29.836H131.068V35.9847H129.495V32.093L126.616 35.9847H125.042ZM127.399 26.7617C127.399 27.2681 127.588 27.76 128.11 27.76C128.574 27.76 128.769 27.2681 128.769 26.7617H130.205C130.205 27.9336 129.495 28.8812 128.11 28.8812C126.572 28.8812 125.956 27.9553 125.956 26.7617H127.399Z" fill="white"/>
<path d="M80.8048 43.5801H84.9451V45.0558H82.3855V49.7287H80.8048V43.5801Z" fill="white"/>
<path d="M88.7156 43.4354C90.7603 43.4354 92.0727 44.817 92.0727 46.6616C92.0727 48.5062 90.7603 49.8878 88.7156 49.8878C86.6781 49.8878 85.3584 48.5062 85.3584 46.6616C85.3584 44.8098 86.6708 43.4354 88.7156 43.4354ZM88.7156 48.4194C89.6872 48.4194 90.3978 47.7249 90.3978 46.6544C90.3978 45.6127 89.6727 44.9038 88.7156 44.9038C87.7874 44.9038 87.0479 45.5838 87.0479 46.6544C87.0406 47.6815 87.7512 48.4194 88.7156 48.4194Z" fill="white"/>
<path d="M98.8523 48.8173C98.3302 49.5117 97.4021 49.8806 96.4015 49.8806C94.4003 49.8806 93.0588 48.593 93.0588 46.6544C93.0588 44.8677 94.3712 43.4282 96.2492 43.4282C97.2643 43.4282 98.1562 43.6886 98.729 44.26L97.9894 45.5042C97.5254 45.0557 97.0178 44.9038 96.4523 44.9038C95.5749 44.9038 94.741 45.5766 94.741 46.6544C94.741 47.7467 95.5894 48.4194 96.5248 48.4194C97.1991 48.4194 97.7139 48.1084 98.1127 47.6671L98.8523 48.8173Z" fill="white"/>
<path d="M103.442 49.7287C102.536 51.9277 101.963 52.463 101.057 52.463C100.498 52.463 100.085 52.246 99.7296 51.9856L100.237 50.7993C100.404 50.8933 100.636 51.0163 100.882 51.0163C101.281 51.0163 101.564 50.7052 101.825 50.0614L101.963 49.7359L99.1133 43.5873H101.006L102.441 46.9509C102.565 47.2548 102.644 47.5369 102.746 47.8407C102.804 47.5513 102.855 47.2548 102.963 46.9365L104.073 43.5873H105.864L103.442 49.7287Z" fill="white"/>
<path d="M105.559 48.2675H106.342C106.777 47.6961 107.126 46.4519 107.205 45.0558L107.3 43.5801H111.846V48.2675H112.875V51.161H111.396V49.7287H107.024V51.161H105.559V48.2675ZM107.988 48.2675H110.272V45.0558H108.764L108.721 45.6851C108.605 46.9872 108.264 47.8841 107.988 48.2675Z" fill="white"/>
<path d="M113.999 44.0213C114.536 43.7102 115.37 43.4354 116.175 43.4354C117.995 43.4354 118.64 44.3613 118.64 45.9889V49.7359H117.269V49.027C116.943 49.49 116.283 49.8227 115.449 49.8227C114.326 49.8227 113.521 49.1283 113.521 47.9347C113.521 46.582 114.521 45.9382 115.769 45.9382C116.32 45.9382 116.863 46.1191 117.168 46.3361C117.211 45.3089 116.936 44.7519 116.015 44.7519C115.304 44.7519 114.848 44.9689 114.398 45.1787L113.999 44.0213ZM117.168 47.9275V47.2982C116.892 47.0956 116.537 46.9943 116.088 46.9943C115.566 46.9943 115.101 47.2403 115.101 47.7611C115.101 48.2241 115.486 48.4845 115.979 48.4845C116.631 48.4845 116.972 48.2024 117.168 47.9275Z" fill="white"/>
<path d="M120.264 43.5801H121.838V44.166C122.222 43.7537 122.947 43.4282 123.745 43.4282C125.441 43.4282 126.536 44.7375 126.536 46.5604C126.536 48.4339 125.246 49.8806 123.273 49.8806C122.722 49.8806 122.193 49.7866 121.838 49.5768V52.463H120.264V43.5801ZM121.838 45.5766V48.065C122.265 48.3398 122.621 48.4194 123.136 48.4194C124.23 48.4194 124.861 47.6237 124.861 46.6038C124.861 45.62 124.288 44.9111 123.244 44.9111C122.715 44.9111 122.222 45.157 121.838 45.5766Z" fill="white"/>
<path d="M133.316 48.8173C132.794 49.5117 131.865 49.8806 130.865 49.8806C128.864 49.8806 127.522 48.593 127.522 46.6544C127.522 44.8677 128.835 43.4282 130.713 43.4282C131.728 43.4282 132.62 43.6886 133.192 44.26L132.453 45.5042C131.989 45.0557 131.481 44.9038 130.916 44.9038C130.038 44.9038 129.204 45.5766 129.204 46.6544C129.204 47.7467 130.053 48.4194 130.988 48.4194C131.662 48.4194 132.177 48.1084 132.576 47.6671L133.316 48.8173Z" fill="white"/>
<path d="M133.823 43.5801H139.443V45.1498H137.427V49.7287H135.853V45.157H133.823V43.5801Z" fill="white"/>
<path d="M140.567 43.5801C141.103 43.5656 142.031 43.515 142.988 43.515C144.779 43.515 145.78 44.0068 145.78 45.1281C145.78 45.8659 145.243 46.4012 144.627 46.4952V46.5242C145.49 46.7267 145.939 47.2331 145.939 47.942C145.939 49.1572 144.997 49.801 143.01 49.801C142.242 49.801 141.118 49.7359 140.559 49.7359V43.5801H140.567ZM142.14 44.8098V46.1625H143.17C143.692 46.1625 144.112 45.931 144.112 45.4536C144.112 45.0051 143.713 44.7809 143.126 44.7809C142.756 44.7881 142.3 44.7953 142.14 44.8098ZM142.14 47.1246V48.4917C142.372 48.5062 142.8 48.5496 143.184 48.5496C143.88 48.5496 144.294 48.2603 144.294 47.8407C144.294 47.3777 143.866 47.1318 143.126 47.1318H142.14V47.1246Z" fill="white"/>
<path d="M152.726 49.1138C152.11 49.6347 151.233 49.8806 150.37 49.8806C148.383 49.8806 147.056 48.593 147.056 46.6544C147.056 44.8677 148.289 43.4282 150.319 43.4282C151.907 43.4282 153.234 44.5639 153.234 46.2855C153.234 46.6689 153.205 46.9003 153.14 47.1318H148.688C148.825 48.0577 149.565 48.5641 150.537 48.5641C151.291 48.5641 151.921 48.2892 152.277 48.0071L152.726 49.1138ZM148.63 46.0829H151.653C151.668 45.3306 151.146 44.7447 150.239 44.7447C149.304 44.7447 148.796 45.28 148.63 46.0829Z" fill="white"/>
<path d="M158.781 47.3778H156.083V49.7287H154.51V43.5801H156.083V45.9021H158.781V43.5801H160.354V49.7287H158.781V47.3778Z" fill="white"/>
<path d="M166.387 47.3778H163.69V49.7287H162.116V43.5801H163.69V45.9021H166.387V43.5801H167.96V49.7287H166.387V47.3778Z" fill="white"/>
<path d="M169.715 43.5801H171.289V45.2583H172.057C174.153 45.2583 174.769 46.2999 174.769 47.3922C174.769 48.5713 174.029 49.7287 171.934 49.7287H169.715V43.5801ZM171.289 46.517V48.3616H171.905C172.753 48.3616 173.094 48.0071 173.094 47.4429C173.094 46.8859 172.768 46.517 171.919 46.517H171.289ZM175.646 43.5801H177.22V49.7287H175.646V43.5801Z" fill="white"/>
<path d="M178.974 49.7287V43.5801H180.548V47.4718L183.427 43.5801H185V49.7287H183.427V45.837L180.548 49.7287H178.974ZM181.331 40.5057C181.331 41.0121 181.52 41.504 182.042 41.504C182.506 41.504 182.701 41.0121 182.701 40.5057H184.137C184.137 41.6776 183.427 42.6252 182.042 42.6252C180.504 42.6252 179.888 41.6993 179.888 40.5057H181.331Z" fill="white"/>
<path d="M84.3288 63.4799C83.4224 65.679 82.8496 66.2143 81.9432 66.2143C81.3849 66.2143 80.9716 65.9973 80.6163 65.7369L81.1239 64.5505C81.2907 64.6446 81.5227 64.7675 81.7692 64.7675C82.168 64.7675 82.4508 64.4565 82.7118 63.8127L82.8496 63.4872L80 57.3313H81.8925L83.3282 60.695C83.4514 60.9988 83.5312 61.2809 83.6327 61.5847C83.6907 61.2954 83.7415 60.9988 83.8502 60.6805L84.9596 57.3313H86.7506L84.3288 63.4799Z" fill="white"/>
<path d="M91.9712 61.129H89.2739V63.4799H87.7004V57.3313H89.2739V59.6533H91.9712V57.3313H93.5446V63.4799H91.9712V61.129Z" fill="white"/>
<path d="M95.2993 63.4799V57.3313H96.8728V61.223L99.7514 57.3313H101.325V63.4799H99.7514V59.5882L96.8728 63.4799H95.2993Z" fill="white"/>
<path d="M103.08 57.3313C103.616 57.3168 104.544 57.2662 105.501 57.2662C107.292 57.2662 108.293 57.7581 108.293 58.8793C108.293 59.6171 107.756 60.1524 107.14 60.2465V60.2754C108.003 60.4779 108.452 60.9843 108.452 61.6932C108.452 62.9085 107.51 63.5523 105.523 63.5523C104.754 63.5523 103.631 63.4872 103.072 63.4872V57.3313H103.08ZM104.66 58.561V59.9137H105.69C106.212 59.9137 106.632 59.6822 106.632 59.2048C106.632 58.7563 106.234 58.5321 105.646 58.5321C105.277 58.5321 104.82 58.5465 104.66 58.561ZM104.66 60.8686V62.2357C104.892 62.2502 105.32 62.2936 105.704 62.2936C106.4 62.2936 106.814 62.0042 106.814 61.5847C106.814 61.1217 106.386 60.8758 105.646 60.8758H104.66V60.8686Z" fill="white"/>
<path d="M115.246 62.8651C114.63 63.3859 113.753 63.6318 112.89 63.6318C110.903 63.6318 109.576 62.3442 109.576 60.4056C109.576 58.6189 110.809 57.1794 112.839 57.1794C114.427 57.1794 115.754 58.3151 115.754 60.0367C115.754 60.4201 115.725 60.6516 115.66 60.883H111.208C111.346 61.8089 112.085 62.3153 113.057 62.3153C113.811 62.3153 114.442 62.0404 114.797 61.7583L115.246 62.8651ZM111.15 59.8341H114.173C114.188 59.0818 113.666 58.4959 112.759 58.4959C111.824 58.4959 111.317 59.024 111.15 59.8341Z" fill="white"/>
<path d="M117.03 57.3313H118.604V57.9172C118.988 57.5049 119.713 57.1794 120.511 57.1794C122.207 57.1794 123.302 58.4887 123.302 60.3116C123.302 62.1851 122.012 63.6318 120.039 63.6318C119.488 63.6318 118.959 63.5378 118.604 63.328V66.2143H117.03V57.3313ZM118.604 59.3278V61.8162C119.032 62.0911 119.387 62.1706 119.902 62.1706C120.997 62.1706 121.627 61.3749 121.627 60.355C121.627 59.3712 121.055 58.6623 120.01 58.6623C119.481 58.6551 118.988 58.901 118.604 59.3278Z" fill="white"/>
<path d="M130.082 62.5685C129.56 63.2629 128.632 63.6318 127.631 63.6318C125.63 63.6318 124.288 62.3442 124.288 60.4056C124.288 58.6189 125.601 57.1794 127.479 57.1794C128.494 57.1794 129.386 57.4398 129.959 58.0113L129.219 59.2554C128.755 58.807 128.247 58.6551 127.682 58.6551C126.804 58.6551 125.971 59.3278 125.971 60.4056C125.971 61.4979 126.819 62.1706 127.754 62.1706C128.429 62.1706 128.943 61.8596 129.342 61.4183L130.082 62.5685Z" fill="white"/>
<path d="M131.344 63.4799V57.3313H132.917V61.223L135.796 57.3313H137.369V63.4799H135.796V59.5882L132.917 63.4799H131.344Z" fill="white"/>
<path d="M138.478 57.3313H144.098V58.901H142.082V63.4799H140.509V58.901H138.478V57.3313Z" fill="white"/>
<path d="M150.319 62.8651C149.703 63.3859 148.825 63.6318 147.962 63.6318C145.976 63.6318 144.649 62.3442 144.649 60.4056C144.649 58.6189 145.881 57.1794 147.912 57.1794C149.5 57.1794 150.827 58.3151 150.827 60.0367C150.827 60.4201 150.798 60.6516 150.732 60.883H146.273C146.411 61.8089 147.15 62.3153 148.122 62.3153C148.876 62.3153 149.507 62.0404 149.862 61.7583L150.319 62.8651ZM146.222 59.8341H149.246C149.26 59.0818 148.738 58.4959 147.832 58.4959C146.889 58.4959 146.382 59.024 146.222 59.8341Z" fill="white"/>
<path d="M151.399 57.3313H157.019V58.901H155.003V63.4799H153.43V58.901H151.399V57.3313Z" fill="white"/>
<path d="M84.5318 7.15841H81.5662V9.59616H80.9136V4.21429H81.5662V6.54354H84.5318V4.21429H85.1843V9.59616H84.5318V7.15841Z" fill="white"/>
<path d="M86.5693 6.37718C86.8811 6.18187 87.2944 6.0589 87.7294 6.0589C88.7156 6.0589 89.0636 6.57249 89.0636 7.4767V9.60341H88.4763V9.15492C88.266 9.41533 87.9397 9.65405 87.3669 9.65405C86.7361 9.65405 86.301 9.25619 86.301 8.58346C86.301 7.87456 86.8666 7.48394 87.6134 7.48394C87.8817 7.48394 88.2443 7.53457 88.4763 7.70818C88.4763 7.06438 88.3748 6.61589 87.6859 6.61589C87.2654 6.61589 87.0044 6.7244 86.7288 6.86907L86.5693 6.37718ZM88.4763 8.6558V8.21454C88.2588 8.06263 87.9977 7.98306 87.7004 7.98306C87.3307 7.98306 86.9609 8.15667 86.9609 8.55452C86.9609 8.88727 87.1856 9.09705 87.5844 9.09705C88.034 9.09705 88.3023 8.85834 88.4763 8.6558Z" fill="white"/>
<path d="M90.0931 6.13843H90.7095V9.02467H92.5584V6.13843H93.1748V9.02467H93.7548V10.4497H93.1748V9.59613H90.0931V6.13843Z" fill="white"/>
<path d="M94.422 9.59613V6.13843H95.0383V8.71362L97.0468 6.13843H97.6631V9.60337H97.0468V7.02094L95.0383 9.59613H94.422Z" fill="white"/>
<path d="M100.397 6.0589C101.506 6.0589 102.246 6.82567 102.246 7.86732C102.246 8.90897 101.506 9.67575 100.397 9.67575C99.2873 9.67575 98.5477 8.90897 98.5477 7.86732C98.5477 6.8329 99.2873 6.0589 100.397 6.0589ZM100.397 9.09705C101.093 9.09705 101.593 8.60516 101.593 7.86732C101.593 7.14395 101.093 6.63759 100.397 6.63759C99.7151 6.63759 99.2003 7.13672 99.2003 7.86732C99.2003 8.59069 99.7079 9.09705 100.397 9.09705Z" fill="white"/>
<path d="M105.675 8.13493H103.747V9.59613H103.13V6.13843H103.747V7.56347H105.675V6.13843H106.292V9.60337H105.675V8.13493Z" fill="white"/>
<path d="M107.437 6.37718C107.749 6.18187 108.162 6.0589 108.597 6.0589C109.584 6.0589 109.932 6.57249 109.932 7.4767V9.60341H109.344V9.15492C109.134 9.41533 108.808 9.65405 108.235 9.65405C107.604 9.65405 107.169 9.25619 107.169 8.58346C107.169 7.87456 107.735 7.48394 108.481 7.48394C108.75 7.48394 109.112 7.53457 109.344 7.70818C109.344 7.06438 109.243 6.61589 108.561 6.61589C108.141 6.61589 107.88 6.7244 107.604 6.86907L107.437 6.37718ZM109.337 8.6558V8.21454C109.12 8.06263 108.859 7.98306 108.561 7.98306C108.191 7.98306 107.822 8.14944 107.822 8.55452C107.822 8.88727 108.046 9.09705 108.445 9.09705C108.902 9.09705 109.163 8.85834 109.337 8.6558Z" fill="white"/>
<path d="M113.332 6.75329H112.114L112.078 7.33922C111.926 9.30679 111.396 9.64677 110.678 9.64677L110.635 9.04637C110.896 9.06807 111.389 8.8149 111.476 7.21625L111.541 6.13843H113.956V9.60337H113.339V6.75329H113.332Z" fill="white"/>
<path d="M115.058 6.13843H115.674V7.18008H116.305C117.371 7.18008 117.676 7.75878 117.676 8.37364C117.676 8.98127 117.32 9.60337 116.225 9.60337H115.051V6.13843H115.058ZM115.674 7.75154V9.01744H116.182C116.791 9.01744 117.023 8.79319 117.023 8.38811C117.023 7.97579 116.784 7.75154 116.189 7.75154H115.674Z" fill="white"/>
<path d="M121.047 8.13493H119.119V9.59613H118.502V6.13843H119.119V7.56347H121.047V6.13843H121.664V9.60337H121.047V8.13493Z" fill="white"/>
<path d="M122.78 6.13843H123.396V7.18008H123.969C125.035 7.18008 125.34 7.75878 125.34 8.37364C125.34 8.98127 124.984 9.60337 123.897 9.60337H122.78V6.13843ZM123.396 7.75154V9.01744H123.846C124.462 9.01744 124.687 8.79319 124.687 8.38811C124.687 7.97579 124.448 7.75154 123.853 7.75154H123.396ZM126 6.13843H126.616V9.60337H126V6.13843Z" fill="white"/>
<path d="M127.725 9.59617V6.13847H128.342V8.71366L130.35 6.13847H130.966V9.60341H130.35V7.02098L128.342 9.59617H127.725ZM128.798 4.36621C128.827 4.77853 129.023 4.97384 129.393 4.97384C129.734 4.97384 129.922 4.77853 129.958 4.36621H130.539C130.539 4.97384 130.089 5.44403 129.4 5.44403C128.639 5.44403 128.226 4.97384 128.226 4.36621H128.798Z" fill="white"/>
<path d="M80.6526 18.8263V15.3614H81.2689V17.9366L83.2774 15.3614H83.8937V18.8263H83.2774V16.2511L81.2689 18.8263H80.6526Z" fill="white"/>
<path d="M87.9687 18.3272C87.6787 18.7034 87.1639 18.9059 86.6345 18.9059C85.5324 18.9059 84.7783 18.1898 84.7783 17.0975C84.7783 16.092 85.5179 15.2891 86.533 15.2891C87.0914 15.2891 87.5772 15.4193 87.8962 15.7448L87.6134 16.2222C87.3234 15.9546 86.9826 15.8605 86.62 15.8605C85.9965 15.8605 85.4309 16.3596 85.4309 17.0903C85.4309 17.8498 85.9965 18.32 86.6781 18.32C87.0914 18.32 87.4394 18.1319 87.6714 17.8715L87.9687 18.3272Z" fill="white"/>
<path d="M91.5506 18.3272C91.2606 18.7034 90.7458 18.9059 90.2165 18.9059C89.1143 18.9059 88.3602 18.1898 88.3602 17.0975C88.3602 16.092 89.0998 15.2891 90.1149 15.2891C90.6733 15.2891 91.1591 15.4193 91.4781 15.7448L91.1953 16.2294C90.9053 15.9618 90.5645 15.8678 90.202 15.8678C89.5784 15.8678 89.0128 16.3669 89.0128 17.0975C89.0128 17.857 89.5784 18.3272 90.26 18.3272C90.6733 18.3272 91.0213 18.1391 91.2533 17.8787L91.5506 18.3272Z" fill="white"/>
<path d="M94.6685 15.9763H93.4504L93.4141 16.5622C93.2618 18.5297 92.7325 18.8697 92.0147 18.8697L91.9712 18.2693C92.2322 18.291 92.7253 18.0379 92.8123 16.4392L92.8703 15.3614H95.2848V18.8263H94.6685V15.9763Z" fill="white"/>
<path d="M99.3236 18.4502C98.9828 18.7612 98.4825 18.9059 98.0185 18.9059C96.8946 18.9059 96.1622 18.1898 96.1622 17.0975C96.1622 16.092 96.8076 15.2891 97.9532 15.2891C98.8451 15.2891 99.5629 15.9184 99.5629 16.8732C99.5629 17.0396 99.5484 17.1843 99.5266 17.2856H96.8583C96.9091 17.9366 97.3876 18.3272 98.0692 18.3272C98.5188 18.3272 98.9103 18.1753 99.1351 17.9655L99.3236 18.4502ZM96.8148 16.7864H98.9176C98.8886 16.215 98.5188 15.8605 97.9169 15.8605C97.2861 15.8605 96.8873 16.2584 96.8148 16.7864Z" fill="white"/>
<path d="M99.7877 18.2476H100.223C100.455 17.9583 100.694 17.2277 100.752 16.2801L100.803 15.3614H103.174V18.2476H103.754V19.6727H103.174V18.8263H100.368V19.6727H99.7877V18.2476ZM100.875 18.2476H102.558V15.9401H101.383L101.347 16.5188C101.267 17.4013 101.035 18.0306 100.875 18.2476Z" fill="white"/>
<path d="M106.038 15.2891C107.147 15.2891 107.887 16.0558 107.887 17.0975C107.887 18.1391 107.147 18.9059 106.038 18.9059C104.929 18.9059 104.189 18.1391 104.189 17.0975C104.189 16.0558 104.929 15.2891 106.038 15.2891ZM106.038 18.3272C106.734 18.3272 107.234 17.8353 107.234 17.0975C107.234 16.3741 106.734 15.8678 106.038 15.8678C105.356 15.8678 104.842 16.3669 104.842 17.0975C104.842 17.8209 105.349 18.3272 106.038 18.3272Z" fill="white"/>
<path d="M108.771 15.3614C109.076 15.3614 109.526 15.3325 110.026 15.3325C110.998 15.3325 111.52 15.6001 111.52 16.2222C111.52 16.6273 111.244 16.9528 110.823 17.0179V17.0324C111.382 17.1336 111.636 17.4158 111.636 17.8498C111.636 18.5008 111.121 18.8553 110.04 18.8553C109.605 18.8553 109.083 18.8263 108.771 18.8263V15.3614ZM109.395 15.8533V16.8877H110.171C110.577 16.8877 110.874 16.6852 110.874 16.3524C110.874 15.9763 110.526 15.8388 110.077 15.8388C109.801 15.8316 109.547 15.8461 109.395 15.8533ZM109.395 17.2711V18.3344C109.576 18.3417 109.83 18.3561 110.106 18.3561C110.678 18.3561 110.99 18.1608 110.99 17.7991C110.99 17.4375 110.693 17.2711 110.135 17.2711H109.395Z" fill="white"/>
<path d="M112.607 15.6001C112.919 15.4048 113.332 15.2818 113.767 15.2818C114.754 15.2818 115.102 15.7954 115.102 16.6996V18.8263H114.514V18.3778C114.304 18.6382 113.978 18.8769 113.405 18.8769C112.774 18.8769 112.339 18.4791 112.339 17.8064C112.339 17.0975 112.905 16.7068 113.651 16.7068C113.92 16.7068 114.282 16.7575 114.514 16.9311C114.514 16.2873 114.413 15.8388 113.731 15.8388C113.303 15.8388 113.05 15.9473 112.774 16.092L112.607 15.6001ZM114.507 17.8787V17.4374C114.289 17.2855 114.028 17.206 113.731 17.206C113.361 17.206 112.992 17.3723 112.992 17.7774C112.992 18.1102 113.216 18.32 113.615 18.32C114.072 18.3272 114.333 18.0885 114.507 17.8787Z" fill="white"/>
<path d="M115.689 15.3614H118.85V15.9763H117.581V18.8191H116.965V15.9763H115.696V15.3614H115.689Z" fill="white"/>
<path d="M122.331 18.4502C121.99 18.7612 121.49 18.9059 121.026 18.9059C119.902 18.9059 119.169 18.1898 119.169 17.0975C119.169 16.092 119.815 15.2891 120.96 15.2891C121.852 15.2891 122.57 15.9184 122.57 16.8732C122.57 17.0396 122.555 17.1843 122.534 17.2856H119.865C119.916 17.9366 120.395 18.3272 121.076 18.3272C121.526 18.3272 121.917 18.1753 122.142 17.9655L122.331 18.4502ZM119.829 16.7864H121.932C121.903 16.215 121.533 15.8605 120.931 15.8605C120.293 15.8605 119.894 16.2584 119.829 16.7864Z" fill="white"/>
<path d="M125.652 15.9763H124.433L124.397 16.5622C124.245 18.5297 123.716 18.8697 122.998 18.8697L122.954 18.2693C123.215 18.291 123.708 18.0379 123.795 16.4392L123.853 15.3614H126.268V18.8263H125.652V15.9763Z" fill="white"/>
<path d="M127.377 15.3614H127.994V16.403H128.624C129.69 16.403 129.995 16.9817 129.995 17.5966C129.995 18.2042 129.64 18.8263 128.545 18.8263H127.37V15.3614H127.377ZM127.994 16.9817V18.2476H128.501C129.11 18.2476 129.342 18.0234 129.342 17.6183C129.342 17.206 129.103 16.9817 128.508 16.9817H127.994Z" fill="white"/>
<path d="M133.743 18.3272C133.453 18.7034 132.939 18.9059 132.409 18.9059C131.307 18.9059 130.553 18.1898 130.553 17.0975C130.553 16.092 131.293 15.2891 132.308 15.2891C132.866 15.2891 133.352 15.4193 133.671 15.7448L133.388 16.2294C133.098 15.9618 132.757 15.8678 132.395 15.8678C131.771 15.8678 131.206 16.3669 131.206 17.0975C131.206 17.857 131.771 18.3272 132.453 18.3272C132.866 18.3272 133.214 18.1391 133.446 17.8787L133.743 18.3272Z" fill="white"/>
<path d="M134.548 15.3614H135.165V18.8263H134.548V15.3614ZM136.064 17.0179L137.731 18.8263H136.876L135.31 17.0541L136.774 15.3614H137.586L136.064 17.0179Z" fill="white"/>
<path d="M138.384 18.8263V15.3614H139V17.9366L141.009 15.3614H141.625V18.8263H141.009V16.2511L139 18.8263H138.384Z" fill="white"/>
<path d="M142.735 18.8263V15.3614H143.351V17.9366L145.359 15.3614H145.976V18.8263H145.359V16.2511L143.351 18.8263H142.735ZM143.808 13.5964C143.837 14.0087 144.033 14.204 144.402 14.204C144.743 14.204 144.932 14.0087 144.968 13.5964H145.548C145.548 14.204 145.098 14.6742 144.41 14.6742C143.648 14.6742 143.235 14.204 143.235 13.5964H143.808Z" fill="white"/>
</g>
<defs>
<clipPath id="clip0_52_314">
<rect width="60" height="68.5714" fill="white" transform="translate(0 0.214294)"/>
</clipPath>
<clipPath id="clip1_52_314">
<rect width="105" height="62" fill="white" transform="translate(80 4.21429)"/>
</clipPath>
</defs>
</svg>
